<svg width="28" height="29" viewBox="0 0 28 29" fill="none" xmlns="http://www.w3.org/2000/svg">
<path d="M21.7353 5.44034C22.0998 5.07588 22.6911 5.07587 23.0556 5.44034C23.42 5.80482 23.42 6.39617 23.0556 6.76065L15.3173 14.498L23.0595 22.2411C23.424 22.6056 23.424 23.197 23.0595 23.5614C22.695 23.9257 22.1046 23.9258 21.7402 23.5614L13.998 15.8183L6.25579 23.5614C5.89131 23.9259 5.29998 23.9259 4.93548 23.5614C4.57098 23.197 4.571 22.6056 4.93548 22.2411L12.6777 14.498L4.94036 6.76065C4.57588 6.39615 4.57586 5.80482 4.94036 5.44034C5.30481 5.07619 5.89529 5.07613 6.2597 5.44034L13.997 13.1776L21.7353 5.44034Z" fill="#6D7882"/>
</svg>
