<svg width="24" height="25" viewBox="0 0 24 25" fill="none" xmlns="http://www.w3.org/2000/svg">
<path fill-rule="evenodd" clip-rule="evenodd" d="M12.0006 1.99805C12.498 1.99806 12.9012 2.40097 12.9012 2.89799L12.901 13.398L14.1082 12.1918C14.4598 11.8404 15.03 11.8404 15.3818 12.1918C15.7334 12.5432 15.7334 13.113 15.3818 13.4645L12.6372 16.207C12.2855 16.5585 11.7154 16.5585 11.3637 16.207L8.61924 13.4645C8.26755 13.113 8.26755 12.5432 8.61923 12.1918C8.97093 11.8404 9.54112 11.8404 9.8928 12.1918L11.1 13.3982L11.1001 2.89796C11.1001 2.40095 11.5033 1.99804 12.0006 1.99805Z" fill="#FAFAFA"/>
<path fill-rule="evenodd" clip-rule="evenodd" d="M8.1504 8.13355H7.47204C6.7913 8.13352 6.21578 8.13351 5.74164 8.18026C5.23929 8.2298 4.77327 8.33729 4.33337 8.59958C4.17285 8.69528 4.02076 8.80443 3.87872 8.92585C3.48947 9.25861 3.23864 9.66555 3.03117 10.1254C2.83534 10.5595 2.65149 11.1044 2.434 11.7491L2.25887 12.2681C1.8768 13.4004 1.6635 14.0325 1.51655 14.6837C1.40433 15.1808 1.32168 15.6842 1.26908 16.1912C1.20017 16.8551 1.20018 17.5221 1.2002 18.7171V18.8118C1.20018 19.4911 1.20017 20.0582 1.24018 20.5205C1.28194 21.0031 1.37234 21.455 1.60316 21.878C1.90683 22.4346 2.36451 22.8919 2.92145 23.1954C3.34476 23.426 3.797 23.5164 4.27989 23.5581C4.74252 23.5981 5.30996 23.5981 5.9898 23.5981H18.0106C18.6904 23.5981 19.2579 23.5981 19.7205 23.5581C20.2034 23.5164 20.6557 23.426 21.0789 23.1954C21.6358 22.8919 22.0935 22.4346 22.3972 21.878C22.6281 21.455 22.7185 21.0031 22.7602 20.5205C22.8002 20.0582 22.8002 19.4912 22.8002 18.8118V18.7172C22.8002 17.5221 22.8002 16.8551 22.7313 16.1912C22.6788 15.6842 22.5961 15.1808 22.4839 14.6837C22.3369 14.0325 22.1236 13.4004 21.7414 12.268L21.5664 11.7491C21.3489 11.1044 21.1651 10.5595 20.9692 10.1254C20.7618 9.66555 20.511 9.25861 20.1217 8.92585C19.9796 8.80443 19.8276 8.69528 19.667 8.59958C19.2271 8.33729 18.7611 8.2298 18.2588 8.18026C17.7847 8.13351 17.2092 8.13352 16.5284 8.13355H15.85C15.3526 8.13355 14.9494 8.53646 14.9494 9.03347C14.9494 9.53049 15.3526 9.9334 15.85 9.9334H16.4856C17.2206 9.9334 17.7067 9.93441 18.0819 9.97142C18.4388 10.0066 18.6157 10.0686 18.7442 10.1452C18.8172 10.1887 18.8863 10.2383 18.9508 10.2935C19.0646 10.3908 19.1799 10.5384 19.3273 10.8652C19.4823 11.2087 19.6386 11.6687 19.8734 12.3646L20.0169 12.7902C20.4216 13.9892 20.6029 14.5301 20.727 15.0797C20.8024 15.4143 20.8624 15.7524 20.9066 16.0926H17.9522C17.6181 16.0926 17.3037 16.0925 17.0384 16.1195C16.7439 16.1492 16.4322 16.218 16.1296 16.4039C16.0597 16.4468 15.9924 16.494 15.9279 16.5449C15.6493 16.7648 15.4777 17.0339 15.3484 17.3C15.232 17.5398 15.1242 17.8347 15.0094 18.1483L14.9966 18.1833C14.8646 18.5441 14.7876 18.7514 14.7159 18.899C14.6835 18.9656 14.6618 18.9995 14.6498 19.0158C14.6443 19.0233 14.64 19.0279 14.64 19.0279C14.631 19.035 14.621 19.0418 14.6112 19.0479C14.6112 19.0479 14.6059 19.0502 14.5969 19.0527C14.5774 19.0584 14.5382 19.0673 14.4644 19.0747C14.3011 19.0913 14.0798 19.0923 13.6953 19.0923H10.3049C9.92051 19.0923 9.69914 19.0913 9.53579 19.0747C9.46209 19.0673 9.42281 19.0584 9.40343 19.0527C9.39441 19.0502 9.3887 19.0477 9.3887 19.0477C9.37883 19.0417 9.36898 19.0346 9.35988 19.0275C9.35988 19.0275 9.356 19.0233 9.35044 19.0158C9.33851 18.9995 9.31672 18.9656 9.28438 18.899C9.21272 18.7514 9.13568 18.5441 9.00365 18.1833L8.99087 18.1483C8.87616 17.8349 8.76824 17.5398 8.65181 17.3C8.5226 17.0339 8.35097 16.7648 8.07236 16.5449C8.0079 16.494 7.94054 16.4468 7.87056 16.4039C7.5681 16.218 7.25633 16.1492 6.96183 16.1195C6.6965 16.0925 6.38217 16.0926 6.0481 16.0926H3.09377C3.13797 15.7524 3.19794 15.4145 3.2735 15.0797C3.39756 14.5301 3.57886 13.9892 3.98345 12.7902L4.12703 12.3646C4.36184 11.6687 4.51811 11.2087 4.67309 10.8652C4.82051 10.5384 4.93576 10.3908 5.04952 10.2935C5.11409 10.2383 5.18322 10.1887 5.25618 10.1452C5.38475 10.0686 5.56156 10.0066 5.9185 9.97142C6.29376 9.93441 6.77988 9.9334 7.51479 9.9334H8.1504C8.64777 9.9334 9.05096 9.53049 9.05096 9.03347C9.05096 8.53646 8.64777 8.13355 8.1504 8.13355Z" fill="#FAFAFA"/>
</svg>
