<svg width="20" height="21" viewBox="0 0 20 21" fill="none" xmlns="http://www.w3.org/2000/svg">
<path d="M15.157 3.34332L16.127 4.21208C16.6228 4.65608 17.0501 5.03866 17.3508 5.3908C17.6731 5.7682 17.9245 6.19356 17.953 6.73252C17.9815 7.27149 17.7764 7.72077 17.4957 8.12976C17.2338 8.5114 16.8493 8.9365 16.4031 9.42988L8.68947 17.9593C8.26875 18.4253 7.93599 18.7939 7.49506 19.0241C7.05413 19.2542 6.56024 19.317 5.93579 19.3965L4.07287 19.6351C3.57676 19.6987 3.12816 19.7562 2.76259 19.7517C2.36385 19.7468 1.92972 19.6693 1.56533 19.343C1.20094 19.0166 1.07792 18.5951 1.03113 18.2011C0.988219 17.8397 0.998591 17.3897 1.01007 16.892L1.05288 15.0235C1.0667 14.3972 1.07764 13.9018 1.2613 13.4413C1.44497 12.9807 1.77837 12.6127 2.1999 12.1474L9.91363 3.61804C10.3598 3.12462 10.7442 2.69948 11.0981 2.40024C11.4774 2.07953 11.9048 1.82935 12.4464 1.80097C12.988 1.7726 13.4395 1.97672 13.8505 2.25602C14.234 2.51662 14.6612 2.89926 15.157 3.34332Z" fill="#FAFAFA"/>
<path d="M11.2251 18.3008C10.8096 18.3008 10.4727 18.6361 10.4727 19.0496C10.4727 19.4632 10.8096 19.7984 11.2251 19.7984H18.248C18.6636 19.7984 19.0005 19.4632 19.0005 19.0496C19.0005 18.6361 18.6636 18.3008 18.248 18.3008H11.2251Z" fill="#FAFAFA"/>
</svg>
