<svg width="20" height="21" viewBox="0 0 20 21" fill="none" xmlns="http://www.w3.org/2000/svg">
<path d="M9.99902 3.2981C10.3672 3.2981 10.666 3.5969 10.666 3.96509V10.1321H16.833C17.2011 10.1321 17.4999 10.43 17.5 10.7981C17.5 11.1663 17.2012 11.4651 16.833 11.4651H10.666V17.6311C10.666 17.9993 10.3672 18.2981 9.99902 18.2981C9.63098 18.2979 9.33301 17.9992 9.33301 17.6311V11.4651H3.16699C2.7988 11.4651 2.5 11.1663 2.5 10.7981C2.50009 10.43 2.79886 10.1321 3.16699 10.1321H9.33301V3.96509C9.33301 3.59701 9.63098 3.29827 9.99902 3.2981Z" fill="#464C53"/>
</svg>
