<svg width="16" height="16" viewBox="0 0 16 16" fill="none" xmlns="http://www.w3.org/2000/svg">
<path d="M8 1.33301C11.6819 1.33301 14.667 4.3181 14.667 8C14.667 11.6819 11.6819 14.667 8 14.667C4.3181 14.667 1.33301 11.6819 1.33301 8C1.33301 4.3181 4.3181 1.33301 8 1.33301ZM5.83105 10.5332C5.96807 11.0857 6.14475 11.5824 6.35547 12.0039C6.86986 13.0327 7.48153 13.4665 7.99902 13.4668C8.51661 13.4668 9.12901 13.033 9.64355 12.0039C9.85427 11.5824 10.031 11.0857 10.168 10.5332H5.83105ZM3.00684 10.5332C3.59913 11.6983 4.58528 12.6292 5.79199 13.1475C5.64909 12.9389 5.5183 12.7153 5.40137 12.4814C5.1191 11.9169 4.89298 11.2571 4.7334 10.5332H3.00684ZM11.2656 10.5332C11.106 11.2571 10.8799 11.9169 10.5977 12.4814C10.4806 12.7156 10.3482 12.9387 10.2051 13.1475C11.4129 12.6294 12.4005 11.6991 12.9932 10.5332H11.2656ZM2.5957 6.5332C2.46909 7.00083 2.40039 7.49232 2.40039 8C2.40039 8.51008 2.46891 9.00403 2.59668 9.47363C2.61947 9.47066 2.64241 9.4668 2.66602 9.4668H4.55273C4.4961 8.9941 4.46582 8.50283 4.46582 8C4.46583 7.49712 4.49609 7.00594 4.55273 6.5332H2.5957ZM11.4463 6.5332C11.5029 7.00593 11.5332 7.49713 11.5332 8C11.5332 8.50283 11.5029 8.9941 11.4463 9.4668H13.333C13.3566 9.46681 13.3796 9.47065 13.4023 9.47363C13.5302 9.00396 13.5996 8.51017 13.5996 8C13.5996 7.49232 13.5309 7.00083 13.4043 6.5332H11.4463ZM5.63086 6.5332C5.56932 6.99884 5.53321 7.49012 5.5332 8C5.5332 8.50983 5.56934 9.00119 5.63086 9.4668H10.3682C10.4297 9.00119 10.4658 8.50983 10.4658 8C10.4658 7.49013 10.4297 6.99884 10.3682 6.5332H5.63086ZM10.2051 2.85156C10.3484 3.06052 10.4804 3.28414 10.5977 3.51855C10.8799 4.08302 11.106 4.743 11.2656 5.4668H12.9932C12.4004 4.30075 11.4131 3.36962 10.2051 2.85156ZM5.79199 2.85156C4.58512 3.36983 3.59918 4.30154 3.00684 5.4668H4.7334C4.89298 4.74301 5.11913 4.08302 5.40137 3.51855C5.51843 3.28448 5.64891 3.06027 5.79199 2.85156ZM7.99902 2.5332C7.48154 2.53346 6.86986 2.96733 6.35547 3.99609C6.14475 4.41754 5.96808 4.91429 5.83105 5.4668H10.168C10.0309 4.91428 9.85428 4.41754 9.64355 3.99609C9.12901 2.96701 8.51661 2.5332 7.99902 2.5332Z" fill="#464C53"/>
</svg>
